<?xml version="1.0" encoding="UTF-8" ?>
<svg version="1.1" xmlns="http://www.w3.org/2000/svg" shape-rendering="crispEdges">
<rect x="7" y="2" width="1" height="2" fill="#040404" />
<rect x="3" y="3" width="1" height="1" fill="#040404" />
<rect x="11" y="3" width="1" height="1" fill="#040404" />
<rect x="4" y="4" width="1" height="1" fill="#040404" />
<rect x="10" y="4" width="1" height="1" fill="#040404" />
<rect x="6" y="5" width="3" height="1" fill="#040404" />
<rect x="5" y="6" width="1" height="3" fill="#040404" />
<rect x="9" y="6" width="1" height="3" fill="#040404" />
<rect x="2" y="7" width="2" height="1" fill="#040404" />
<rect x="11" y="7" width="2" height="1" fill="#040404" />
<rect x="6" y="9" width="3" height="1" fill="#040404" />
<rect x="4" y="10" width="1" height="1" fill="#040404" />
<rect x="10" y="10" width="1" height="1" fill="#040404" />
<rect x="3" y="11" width="1" height="1" fill="#040404" />
<rect x="7" y="11" width="1" height="2" fill="#040404" />
<rect x="11" y="11" width="1" height="1" fill="#040404" />
</svg>